<?xml version="1.0" encoding="iso-8859-1"?>
<!-- Generator: Adobe Illustrator 24.3.0, SVG Export Plug-In . SVG Version: 6.00 Build 0)  -->
<svg version="1.1" id="&#x421;&#x43B;&#x43E;&#x439;_1"
	 xmlns="http://www.w3.org/2000/svg" xmlns:xlink="http://www.w3.org/1999/xlink" x="0px" y="0px" viewBox="0 0 1150 1150"
	 style="enable-background:new 0 0 1150 1150;" xml:space="preserve">
<rect style="fill:#FFFFFF;" width="1150" height="1150"/>
<g>
	<path style="opacity:0.5;fill:#151C32;enable-background:new    ;" d="M597.8,396.348c-62.9-36.7-114.9-2.4-124.1,76.8
		c-1.6,13.7,8.8,31.8,21.5,39.2l205.2,119.8c12.7,7.4,23.1,1.4,21.5-14.2C712.7,528.248,660.6,433.048,597.8,396.348z"/>
	<path style="opacity:0.5;fill:#151C32;enable-background:new    ;" d="M667.9,293.548c0,54.7-31.6,80.5-70.6,57.7
		c-39-22.8-70.6-85.5-70.6-140.2s31.6-80.5,70.6-57.7S667.9,238.848,667.9,293.548z"/>
	<path style="opacity:0.07;fill:#151C32;enable-background:new    ;" d="M638.2,363.548c-62.9-36.7-114.9-2.4-124.1,76.8
		c-1.6,13.7,8.8,31.8,21.5,39.2l205.2,119.8c12.7,7.4,23.1,1.4,21.5-14.2C753.1,495.448,701.1,400.248,638.2,363.548z"/>
	<path style="opacity:0.07;fill:#151C32;enable-background:new    ;" d="M708.3,260.748c0,54.7-31.6,80.5-70.6,57.7
		c-39-22.8-70.6-85.5-70.6-140.2c0-54.7,31.6-80.5,70.6-57.7C676.7,143.348,708.3,206.048,708.3,260.748z"/>
	<path style="opacity:0.2;fill:#151C32;enable-background:new    ;" d="M844.2,672.448l-177.7-102.6v92.6l177.7,102.6V672.448z"/>
	<path style="fill:#151C32;" d="M702.6,621.748c0,7.6-4.5,11.2-10.1,8s-10.1-12-10.1-19.6c0-7.6,4.5-11.2,10.1-8
		S702.6,614.148,702.6,621.748z"/>
	<path style="opacity:0.15;fill:#151C32;enable-background:new    ;" d="M712,618.448l53.4,30.9v11.1l-53.5-30.9L712,618.448z"/>
	<path style="opacity:0.15;fill:#151C32;enable-background:new    ;" d="M712,640.748l113.8,65.7v11.3l-113.8-65.7V640.748z"/>
	<path style="opacity:0.2;fill:#151C32;enable-background:new    ;" d="M483.2,565.448l-177.7-102.5v92.6l177.7,102.6V565.448z"/>
	<path style="fill:#151C32;" d="M341.6,514.748c0,7.6-4.5,11.2-10.1,8c-5.6-3.2-10.1-12-10.1-19.6s4.5-11.2,10.1-8
		C337.1,498.348,341.6,507.148,341.6,514.748z"/>
	<path style="opacity:0.15;fill:#151C32;enable-background:new    ;" d="M350.7,511.948l32.2,18.6v11.3l-32.2-18.6V511.948z"/>
	<path style="opacity:0.15;fill:#151C32;enable-background:new    ;" d="M351,534.248l113.8,65.7v11.3l-113.8-65.7V534.248z"/>
	<path style="opacity:0.3;fill:#151C32;enable-background:new    ;" d="M597.7,667.848l336.7,194.4l0.1,175.5l-307-177.2l-29.7,9.7
		L597.7,667.848z"/>
	<path style="fill:#151C32;" d="M666.1,766.148c0,14.5-8.5,21.2-19.1,15.1c-10.6-6.1-19.1-22.8-19.1-37.2c0-14.5,8.5-21.2,19.1-15.1
		C657.5,735.048,666.1,751.748,666.1,766.148z"/>
	<path style="opacity:0.15;fill:#151C32;enable-background:new    ;" d="M684.3,760.548l73.8,42.6v15.4l-73.8-42.6V760.548z"/>
	<path style="opacity:0.15;fill:#151C32;enable-background:new    ;" d="M684.3,791.448l220.4,127.2v15.4l-220.4-127.2V791.448z"/>
	<path style="opacity:0.15;fill:#151C32;enable-background:new    ;" d="M684.3,822.348l172.3,99.5v15.4l-172.3-99.5V822.348z"/>
	<path style="opacity:0.3;fill:#151C32;enable-background:new    ;" d="M552.2,718.248l-336.7-194.3l0.1,175.5l307,177.2l29.7,44
		L552.2,718.248z"/>
	<path style="fill:#151C32;" d="M483.8,737.548c0,14.5,8.6,31.1,19.1,37.2c10.6,6.1,19.1-0.7,19.1-15.2s-8.6-31.1-19.1-37.2
		C492.4,716.348,483.8,723.148,483.8,737.548z"/>
	<path style="opacity:0.15;fill:#151C32;enable-background:new    ;" d="M465.6,711.048l-73.8-42.6v15.4l73.8,42.6V711.048z"/>
	<path style="opacity:0.15;fill:#151C32;enable-background:new    ;" d="M465.7,741.848l-220.4-127.2v15.4l220.3,127.2
		L465.7,741.848z"/>
	<path style="opacity:0.15;fill:#151C32;enable-background:new    ;" d="M465.7,772.748l-172.3-99.5v15.4l172.3,99.5V772.748z"/>
	<path style="opacity:0.2;fill:#151C32;enable-background:new    ;" d="M355.7,827.548c6,3.4,10.8,11.8,10.8,18.8v30.5l20.2,11.6
		c6,3.4,10.8,11.8,10.8,18.7c0,6.9-4.8,9.7-10.8,6.3l-20.2-11.7v30.5c0,6.9-4.8,9.7-10.8,6.3s-10.8-11.8-10.8-18.7v-30.5l-20.2-11.6
		c-6-3.4-10.8-11.8-10.8-18.7s4.8-9.7,10.8-6.3l20.2,11.6v-30.5C344.8,826.848,349.7,824.048,355.7,827.548z"/>
	<path style="opacity:0.2;fill:#151C32;enable-background:new    ;" d="M790.2,436.848l27.8,54.6c3.8,7.5,3.2,15-1.4,16.8
		c-4.6,1.8-11.4-2.9-15.2-10.4l-0.3-0.7v60.6c0,6.9-4.8,9.7-10.8,6.3c-6-3.5-10.8-11.8-10.8-18.7v-60.6l-0.3,0.3
		c-3.8,3.1-10.7-0.1-15.2-7.2c-4.6-7.1-5.2-15.3-1.4-18.4L790.2,436.848z"/>
	<path style="opacity:0.2;fill:#151C32;enable-background:new    ;" d="M552.2,534.458l-42.8-24.7v-14.4l42.8,24.7
		c3.5,2,8.6,6.1,12.9,12.4c4.7,6.7,8,15.2,8,24.4c0,10.2-2.6,16-7.5,17.6c-4.6,1.5-10.1-1.1-13.4-3l-17.6-10.2l-0.1-0.1
		c-1.5-0.9-3.9-1.8-5.8-1.2c-1.6,0.5-3.3,2-3.3,7.7s1.8,9.1,3.2,11.2c1.8,2.6,4.2,4.4,5.7,5.2l0.2,0.1l53.8,31.1v14.4l-53.5-30.9
		c-3.7-1.9-9-6-13.6-12.4c-5-7.1-8.4-16-8.4-25.9c0-9.9,3.4-14.9,8.3-16.3c4.6-1.3,9.9,0.6,13.6,2.8l17.4,10.1
		c2.5,1.5,4.4,2.1,5.7,1.7c1-0.3,2.8-1.7,2.8-9c0-4.8-1.5-7.9-3-9.9C555.9,537.158,553.7,535.258,552.2,534.458z"/>
	<path style="fill:#151C32;" d="M517.3,506.658c0,12.9-7.6,19-16.9,13.7c-9.3-5.4-16.9-20.2-16.9-33.2c0-12.9,7.6-19,16.9-13.7
		C509.7,478.858,517.3,493.758,517.3,506.658z"/>
	<path style="fill:#151C32;" d="M610.3,634.658c0,12.9-7.6,19-16.9,13.7c-9.3-5.4-16.9-20.2-16.9-33.2c0-12.9,7.6-19,16.9-13.7
		C602.7,606.858,610.3,621.758,610.3,634.658z"/>
</g>
</svg>
